Coordinates
version=1
nRows=11
nColumns=36
inDegrees=yes

Units are S.I. units (second, meters, Newtons, ...)
If the header above contains a line with 'inDegrees', this indicates whether rotational values are in degrees (yes) or radians (no).

endheader
time	pelvis_tilt	pelvis_list	pelvis_rotation	pelvis_tx	pelvis_ty	pelvis_tz	hip_flexion_r	hip_adduction_r	hip_rotation_r	knee_angle_r	knee_angle_r_beta	ankle_angle_r	subtalar_angle_r	mtp_angle_r	hip_flexion_l	hip_adduction_l	hip_rotation_l	knee_angle_l	knee_angle_l_beta	ankle_angle_l	subtalar_angle_l	mtp_angle_l	lumbar_extension	lumbar_bending	lumbar_rotation	arm_flex_r	arm_add_r	arm_rot_r	elbow_flex_r	pro_sup_r	arm_flex_l	arm_add_l	arm_rot_l	elbow_flex_l	pro_sup_l
      0.00000000	     -5.09342134	     -0.79089220	     -6.42371262	      0.64867380	      0.92735792	      0.05067425	      2.12211497	     -6.02532094	     -6.23881289	      0.66119140	      0.01153997	      3.51602242	     -5.43571127	     -5.85541838	      0.80358496	     -9.99272195	     -7.15222342	      0.38323346	      0.00668869	      6.04567297	     -0.99987959	     -5.85541838	      2.96349111	      0.56500906	     -0.29430592	     32.74936769	     -3.38964638	     46.14507431	    119.95317342	     79.98668978	     34.62320693	     -0.39328285	     72.09743799	    125.90237820	     87.17467648
      0.01666670	     -3.71161749	      0.17282943	     -7.37079094	      0.64841566	      0.93004979	      0.05171921	      1.20688802	     -7.49820395	     -7.92241317	      1.04329271	      0.01820889	      4.58007167	     -3.63418903	     -6.50251433	     -0.59656782	     -8.69121699	     -9.47373981	      0.55008248	      0.00960075	      4.37978023	     -2.86370227	     -6.50251433	      0.64668669	     -0.09325741	      1.28821438	     34.63785332	     -5.89379717	     54.14553506	    125.15751795	     93.88733374	     35.75255113	     -1.58590237	     69.70160003	    129.70210247	    102.72416106
      0.03333330	     -3.29212041	      0.13125409	     -6.64723818	      0.64307931	      0.93086007	      0.04782458	      0.93343685	     -7.58412248	     -8.91594146	      1.72578273	      0.03012059	      5.21886369	     -3.79985774	     -6.73513273	     -0.51858654	     -8.58532851	     -9.75511766	      1.30194273	      0.02272319	      4.46389338	     -3.29083871	     -6.73513273	     -0.08273317	     -0.19880335	      0.04799477	     35.15734717	     -4.44857123	     54.10538235	    125.95827212	     99.73458353	     36.06094213	     -2.32395647	     68.39815520	    130.34325767	    106.87660679
      0.05000000	     -3.16952101	      0.19354041	     -5.91560766	      0.64778028	      0.92581301	      0.05078035	      0.71533165	     -7.79045648	    -10.10783406	      1.92060149	      0.03352082	      5.53331325	     -3.47043116	     -6.94419834	     -0.04481112	     -8.56384464	    -10.36583083	      1.98222818	      0.03459641	      4.95235431	     -3.13481747	     -6.94419834	     -0.11027117	     -0.63213660	     -0.68604484	     35.14481800	     -3.26916941	     53.63403889	    125.86186241	    101.05748413	     36.39483855	     -2.34482387	     67.46572258	    130.25460623	    107.05153610
      0.06666670	     -3.29445857	      0.15553007	     -5.35412781	      0.64789606	      0.92684340	      0.05028202	      0.82073780	     -7.82469039	    -10.91441657	      2.24171269	      0.03912527	      5.83127791	     -3.34528326	     -7.24095031	      0.45084424	     -8.69601074	    -10.32082190	      2.49922838	      0.04361976	      5.38052465	     -3.02788207	     -7.24095031	      0.11418076	     -0.77947149	     -1.38977542	     34.88121120	     -2.52278912	     53.74942019	    125.37453317	    101.19429058	     36.38368149	     -2.41365493	     66.70944357	    130.22386102	    106.45698759
      0.08333330	     -3.54254309	      0.14599448	     -5.11516580	      0.64785551	      0.92704098	      0.04971334	      1.19743447	     -7.88200307	    -11.17342842	      2.59596054	      0.04530806	      5.81741678	     -3.88348417	     -7.26652587	      0.98965539	     -8.82098022	    -10.63001001	      3.02423043	      0.05278278	      5.97476763	     -2.44573208	     -7.26652587	      0.41944891	     -0.80885805	     -1.84956785	     34.62831745	     -2.01866519	     54.15861449	    125.01469185	    101.02597871	     36.40807070	     -2.32223706	     65.97740159	    129.77823543	    105.63359200
      0.10000000	     -3.86304317	      0.12865271	     -4.93398018	      0.64870367	      0.92765812	      0.04960099	      1.54521303	     -7.89774557	    -11.50590707	      2.80296593	      0.04892098	      5.81128912	     -4.25385902	     -7.29879618	      1.50525017	     -8.93011506	    -10.44883820	      3.38707008	      0.05911552	      6.24108416	     -2.53652572	     -7.29879618	      0.85595971	     -0.80313993	     -2.20724195	     34.23392670	     -1.70607899	     54.32161883	    124.85673503	     99.23832763	     36.26829373	     -2.29095196	     65.74054467	    129.74713656	    103.81346103
      0.11666670	     -4.12231114	      0.10185649	     -4.72063565	      0.64902737	      0.93024434	      0.04894164	      1.71215111	     -7.88070125	    -11.72608361	      2.81476144	      0.04912685	      5.81431629	     -4.53036129	     -7.34588836	      1.85397974	     -8.99446918	    -10.66625616	      3.49958796	      0.06107933	      6.52983191	     -1.96620691	     -7.34588836	      1.19322348	     -0.72639366	     -2.50257789	     33.94994437	     -1.67028134	     54.74153243	    124.47856157	     99.95153741	     36.05901413	     -2.31979497	     65.88762106	    129.66858196	    103.81358514
      0.13333330	     -4.52984707	      0.07748336	     -4.54277888	      0.65019631	      0.93287571	      0.04897646	      1.99644944	     -7.79647866	    -11.86591167	      2.69880876	      0.04710310	      5.61418433	     -5.01649857	     -7.37232728	      2.26317046	     -9.02492318	    -10.62698926	      3.40473904	      0.05942391	      6.35659431	     -2.10741013	     -7.37232728	      1.69084416	     -0.64606552	     -2.71410622	     33.25239240	     -1.69440336	     54.86485793	    124.22455771	     97.48620313	     35.47858939	     -2.46067772	     66.10282356	    129.64614414	    101.41784668
      0.15000000	     -4.65469729	      0.01153551	     -4.43998724	      0.64990193	      0.92953907	      0.04870016	      1.94958973	     -7.66922397	    -12.01268306	      2.48342729	      0.04334398	      5.62530274	     -5.08736666	     -7.38315634	      2.29132705	     -9.05364155	    -10.57562200	      3.18375725	      0.05556705	      6.43883279	     -1.87203007	     -7.38315634	      1.91187095	     -0.54510335	     -2.80327717	     33.24074831	     -1.72179555	     54.92653727	    124.19113340	     96.69622934	     35.59406762	     -2.37031869	     66.33202134	    129.71912321	    100.46844378
      0.16666670	     -4.81859096	     -0.07185663	     -4.34166376	      0.65023077	      0.93209431	      0.04903641	      1.93240631	     -7.49757285	    -12.06175424	      2.30459693	      0.04022280	      5.60242769	     -5.25795154	     -7.43775193	      2.35280192	     -9.11326557	    -10.56477890	      2.94786918	      0.05145002	      6.45871799	     -1.70157729	     -7.43775193	      2.14438925	     -0.46626281	     -2.68353275	     32.95917937	     -1.89592865	     54.73550350	    124.19716780	     98.87046230	     35.58003483	     -2.49609591	     67.10089428	    129.81702738	    101.10970832
